<?xml version="1.0" encoding="iso-8859-1"?>
<!-- Generator: Adobe Illustrator 16.0.0, SVG Export Plug-In . SVG Version: 6.00 Build 0)  -->
<!DOCTYPE svg PUBLIC "-//W3C//DTD SVG 1.1//EN" "http://www.w3.org/Graphics/SVG/1.1/DTD/svg11.dtd">
<svg version="1.1" id="Layer_1" xmlns="http://www.w3.org/2000/svg" xmlns:xlink="http://www.w3.org/1999/xlink" x="0px" y="0px"
	 width="200px" height="200px" viewBox="0 0 200 200" style="enable-background:new 0 0 200 200;" xml:space="preserve">
<g>
	<path style="fill-rule:evenodd;clip-rule:evenodd;fill:#00253F;" d="M165.596,128l-12.604-18.629
		c7.126-3.48,11.569-9.506,11.569-18.163v-0.169c0-6.111-1.845-10.524-5.366-14.088c-4.107-4.159-10.73-6.79-21.127-6.79h-11.503
		h-17.169h-3.455L90.096,98.677l-1.929-28.686H71.232L54.214,98.677l-0.754-28.516L4.585,70C17.328,29.43,55.225,0,100,0
		c55.229,0,100,44.771,100,100c0,9.724-1.414,19.111-4.003,28H165.596z M137.481,98.422h-8.467V86.795h8.551
		c4.527,0,7.462,1.867,7.462,5.686v0.17C145.027,96.301,142.177,98.422,137.481,98.422z M36.692,129.994h17.103l18.109-29.535
		l2.515,29.535h17.103l17.875-30.52v30.095h19.618v-16.974h4.191l11.066,16.974H145V130h50.415c-12.743,40.569-50.64,70-95.415,70
		C44.771,200,0,155.229,0,100c0-9.724,1.414-19.112,4.002-28h29.439L36.692,129.994z"/>
</g>
</svg>
